<?xml version="1.0" encoding="utf-8"?>
<!DOCTYPE svg PUBLIC "-//W3C//DTD SVG 1.1//EN" "http://www.w3.org/Graphics/SVG/1.1/DTD/svg11.dtd">
<svg version="1.1" id="Layer_1" xmlns="http://www.w3.org/2000/svg" xmlns:xlink="http://www.w3.org/1999/xlink" x="0px" y="0px"
	 width="793.322px" height="340.809px" viewBox="0 0 793.322 340.809" fill="#fff" enable-background="new 0 0 793.322 340.809"
	 xml:space="preserve">
<path d="M10.875,9.711v321.386h23.13v7.711H1.999V2.001h32.006v7.71H10.875z"/>
<path d="M99.988,111.595v16.264h0.463c4.338-6.191,9.563-10.998,15.684-14.406c6.117-3.402,13.129-5.11,21.027-5.11
	c7.588,0,14.521,1.475,20.793,4.415c6.274,2.945,11.038,8.131,14.291,15.567c3.56-5.265,8.4-9.913,14.521-13.94
	c6.117-4.025,13.358-6.042,21.724-6.042c6.351,0,12.234,0.776,17.66,2.325c5.418,1.549,10.065,4.027,13.938,7.434
	c3.869,3.41,6.889,7.863,9.062,13.357c2.167,5.504,3.253,12.122,3.253,19.869v80.385H219.41v-68.074
	c0-4.025-0.154-7.82-0.465-11.385c-0.313-3.56-1.161-6.656-2.555-9.293c-1.395-2.631-3.45-4.724-6.157-6.274
	c-2.711-1.543-6.391-2.322-11.037-2.322s-8.403,0.896-11.269,2.671c-2.868,1.784-5.112,4.109-6.737,6.971
	c-1.626,2.869-2.711,6.12-3.252,9.762c-0.545,3.638-0.814,7.318-0.814,11.035v66.91h-32.991v-67.375c0-3.562-0.081-7.087-0.23-10.57
	c-0.158-3.487-0.814-6.7-1.978-9.645c-1.162-2.94-3.099-5.304-5.809-7.088c-2.711-1.775-6.699-2.671-11.965-2.671
	c-1.551,0-3.603,0.349-6.156,1.048c-2.556,0.697-5.036,2.016-7.435,3.949c-2.404,1.938-4.454,4.726-6.158,8.363
	c-1.705,3.642-2.556,8.402-2.556,14.287v69.701h-32.99V111.595H99.988z"/>
<path d="M273.544,129.255c3.405-5.113,7.744-9.215,13.012-12.316c5.264-3.097,11.186-5.303,17.771-6.621
	c6.582-1.315,13.205-1.976,19.865-1.976c6.042,0,12.158,0.428,18.354,1.277c6.195,0.855,11.85,2.522,16.962,4.997
	c5.111,2.477,9.292,5.926,12.546,10.338c3.253,4.414,4.879,10.262,4.879,17.543v62.494c0,5.428,0.31,10.611,0.931,15.567
	c0.615,4.959,1.701,8.676,3.251,11.153H347.66c-0.621-1.86-1.126-3.755-1.511-5.693c-0.39-1.933-0.661-3.908-0.813-5.923
	c-5.267,5.422-11.465,9.217-18.585,11.386c-7.127,2.163-14.407,3.251-21.842,3.251c-5.733,0-11.077-0.698-16.033-2.09
	c-4.958-1.395-9.293-3.562-13.01-6.51c-3.718-2.938-6.622-6.656-8.713-11.147s-3.138-9.84-3.138-16.033
	c0-6.813,1.199-12.43,3.604-16.84c2.399-4.417,5.495-7.939,9.295-10.575c3.793-2.632,8.129-4.607,13.01-5.923
	c4.878-1.315,9.795-2.358,14.752-3.137c4.957-0.772,9.835-1.393,14.638-1.857c4.801-0.466,9.062-1.164,12.779-2.093
	c3.718-0.929,6.658-2.282,8.829-4.065c2.165-1.781,3.172-4.375,3.02-7.785c0-3.56-0.58-6.389-1.742-8.479
	c-1.161-2.09-2.711-3.719-4.646-4.88c-1.937-1.161-4.183-1.936-6.737-2.325c-2.557-0.382-5.309-0.58-8.248-0.58
	c-6.506,0-11.617,1.395-15.335,4.183c-3.716,2.788-5.889,7.437-6.506,13.94h-32.991
	C268.199,140.794,270.132,134.363,273.544,129.255z M338.713,175.838c-2.09,0.696-4.337,1.275-6.736,1.741
	c-2.402,0.465-4.918,0.853-7.551,1.161c-2.635,0.313-5.268,0.698-7.899,1.163c-2.48,0.461-4.919,1.086-7.317,1.857
	c-2.404,0.779-4.495,1.822-6.274,3.138c-1.784,1.317-3.216,2.985-4.3,4.994c-1.085,2.014-1.626,4.571-1.626,7.668
	c0,2.94,0.541,5.422,1.626,7.431c1.084,2.017,2.558,3.604,4.416,4.765s4.025,1.976,6.507,2.438c2.475,0.466,5.031,0.698,7.665,0.698
	c6.505,0,11.537-1.082,15.103-3.253c3.561-2.166,6.192-4.762,7.899-7.785c1.702-3.019,2.749-6.072,3.137-9.174
	c0.384-3.097,0.58-5.576,0.58-7.434v-12.316C342.547,174.173,340.805,175.14,338.713,175.838z"/>
<path d="M463.825,111.595v22.072h-24.161v59.479c0,5.573,0.928,9.292,2.788,11.149c1.856,1.859,5.576,2.788,11.152,2.788
	c1.859,0,3.638-0.076,5.343-0.232c1.703-0.152,3.33-0.388,4.878-0.696v25.557c-2.788,0.465-5.887,0.773-9.293,0.931
	c-3.407,0.149-6.737,0.23-9.99,0.23c-5.111,0-9.953-0.35-14.521-1.048c-4.571-0.695-8.597-2.047-12.081-4.063
	c-3.486-2.011-6.236-4.88-8.248-8.597c-2.016-3.714-3.021-8.595-3.021-14.639v-70.859h-19.98v-22.072h19.98V75.583h32.992v36.012
	H463.825z"/>
<path d="M510.988,111.595V133.9h0.465c1.546-3.72,3.636-7.163,6.272-10.341c2.634-3.172,5.652-5.885,9.06-8.131
	c3.405-2.242,7.047-3.985,10.923-5.228c3.868-1.237,7.898-1.859,12.081-1.859c2.168,0,4.566,0.39,7.202,1.163v30.67
	c-1.551-0.312-3.41-0.584-5.576-0.814c-2.17-0.233-4.26-0.35-6.274-0.35c-6.041,0-11.152,1.01-15.332,3.021
	c-4.182,2.014-7.55,4.761-10.107,8.247c-2.555,3.487-4.379,7.55-5.462,12.198c-1.083,4.645-1.625,9.682-1.625,15.102v54.133h-32.991
	V111.595H510.988z"/>
<path d="M570.93,93.007V65.824h32.994v27.183H570.93z M603.924,111.595v120.117H570.93V111.595H603.924z"/>
<path d="M621.115,111.595h37.637l21.144,31.365l20.911-31.365h36.476l-39.496,56.226l44.377,63.892h-37.64l-25.093-37.87
	l-25.094,37.87h-36.938l43.213-63.193L621.115,111.595z"/>
<path d="M782.443,331.097V9.711h-23.13v-7.71h32.008v336.807h-32.008v-7.711H782.443z"/>
</svg>
