<svg height="64" viewBox="0 0 64.000005 64.000001" width="64" xmlns="http://www.w3.org/2000/svg"><path d="m32.028095 17.446884c-6.630378 0-12.249342 4.49517-13.99122 10.563651-1.517121-3.258998-4.77612-5.506585-8.597016-5.506585-5.169446 0-9.439859 4.270413-9.439859 9.496049 0 5.225637 4.270413 9.49605 9.496049 9.49605 3.764706 0 7.079895-2.247586 8.597015-5.506585 1.685689 6.068481 7.304653 10.563652 13.935031 10.563652 6.574188 0 12.193152-4.438981 13.99122-10.451272 1.517121 3.146619 4.77612 5.338015 8.484636 5.338015 5.225637 0 9.496049-4.270412 9.496049-9.496049s-4.270412-9.43986-9.496049-9.43986c-3.708516 0-6.967515 2.191396-8.484636 5.338016-1.798068-5.956101-7.360843-10.395082-13.99122-10.395082zm0 5.562773c5.000878 0 8.990343 3.989465 8.990343 8.990342 0 5.000879-3.989465 8.990343-8.990343 8.990343s-8.990343-3.989464-8.990343-8.990343c0-5.000875 3.989465-8.99034 8.990343-8.990342zm-22.532046 5.057067c2.191397 0 3.933275 1.74188 3.933275 3.933275 0 2.191396-1.741878 3.933276-3.933275 3.933276-2.191396 0-3.933275-1.74188-3.933275-3.933276 0-2.191395 1.741879-3.933275 3.933275-3.933275zm45.007902 0c2.191396 0 3.933275 1.74188 3.933275 3.933275 0 2.191396-1.741879 3.933276-3.933275 3.933276s-3.933275-1.74188-3.933275-3.933276c.05619-2.191395 1.741879-3.933275 3.933275-3.933275z" fill="#0082c9" stroke-width=".561896"/></svg>