<?xml version="1.0" encoding="UTF-8"?>
<svg width="66px" height="104px" viewBox="0 0 66 104" version="1.1" xmlns="http://www.w3.org/2000/svg" xmlns:xlink="http://www.w3.org/1999/xlink">
    <!-- Generator: Sketch 47.1 (45422) - http://www.bohemiancoding.com/sketch -->
    <title>onion-bg</title>
    <desc>Created with Sketch.</desc>
    <defs></defs>
    <g id="Page-1" stroke="none" stroke-width="1" fill="none" fill-rule="evenodd">
        <g id="styleguide-portal" transform="translate(-2.000000, -23.000000)" fill-rule="nonzero">
            <g id="onion-bg" transform="translate(2.000000, 23.000000)">
                <g id="layer5_17_">
                    <g id="path2554_28_" transform="translate(30.297143, 0.000000)" fill="#68B044">
                        <path d="M8.13239105,7.75250545 L5.42159403,18.7352215 C9.24860159,10.982716 15.4674889,5.16833696 22.4836694,-7.10542736e-15 C17.3809926,6.13740015 12.5972332,12.1132898 9.72697753,18.2506899 C14.6701956,11.3057371 21.2080002,7.42948439 28.543098,5.00682643 C18.6566618,13.8899056 11.0026467,23.4190269 4.94321809,32.9481481 L0.159458648,30.8485113 C1.11621054,23.0960058 3.9864662,15.3435004 8.13239105,7.75250545 L8.13239105,7.75250545 Z" id="Shape"></path>
                    </g>
                    <g id="path2534_7_" transform="translate(0.000000, 28.227160)" fill="#F5F8DE">
                        <path d="M25.832301,0.521713871 L34.7619853,4.23645606 C34.7619853,6.49760349 34.6025266,13.6040668 36.0376545,15.7037037 C51.0267674,35.2464779 48.475429,74.1705156 33.0079401,75.1395788 C9.56751888,75.1395788 0.478375944,58.9885258 0.478375944,44.129557 C0.478375944,30.5626725 16.5836994,21.5180828 26.1512183,13.6040668 C28.7025566,11.5044299 28.2241807,6.65911402 25.832301,0.521713871 L25.832301,0.521713871 Z" id="Shape"></path>
                    </g>
                    <g id="path2536_18_" transform="translate(34.819291, 32.302106)" fill="#623676">
                        <path d="M0.102153196,0 L3.29132616,1.6151053 C2.97240886,3.71474219 3.4507848,8.5600581 5.52374723,9.85214234 C14.9318075,15.828032 23.8614918,22.2884532 27.369582,28.7488744 C39.8073566,51.5218591 18.5993564,72.6797386 0.261611844,70.5801017 C10.148048,63.1506173 13.1777623,47.8071169 9.35075478,31.0100218 C7.7561683,24.3880901 5.52374723,18.573711 1.21836373,11.7902687 C-0.376222748,8.72156863 0.261611844,4.68380537 0.102153196,0 L0.102153196,0 Z" id="Shape"></path>
                    </g>
                </g>
                <g id="layer4_17_" transform="translate(9.000000, 32.000000)" fill="#010101">
                    <g id="path2540_18_" transform="translate(0.000000, 10.329661)">
                        <path d="M22.9646678,0.502650405 C22.3354989,4.00722163 21.5490376,10.3791693 18.560485,12.609351 C17.302147,13.5651431 16.043809,14.3616366 14.6281788,15.3174288 C9.28024249,18.9812987 3.77501389,22.4858699 1.41563021,31.5658953 C0.943753473,33.4774796 1.41563021,35.5483626 1.7302147,37.4599469 C3.14584491,42.8761025 6.9208588,48.9294527 9.90941147,52.2747253 C9.90941147,52.434024 10.5385804,52.7526214 10.5385804,52.91192 C13.0552564,55.9385952 13.8417176,56.7350886 23.1219601,58.8059716 L22.9646678,59.9210625 C17.302147,58.3280756 12.7406719,57.053686 9.75211922,53.5491148 C9.75211922,53.5491148 9.28024249,52.91192 9.28024249,52.91192 C6.13439758,49.2480501 2.35938368,43.1946998 0.943753473,37.4599469 C0.471876737,35.2297652 -8.8817842e-14,33.4774796 0.629168982,31.0879993 C3.14584491,21.8486751 8.80836575,18.1848052 14.3135943,14.3616366 C15.5719323,13.5651431 17.1448548,12.7686497 18.2459005,11.8128575 C20.4479919,10.0605719 21.7063299,4.80371509 22.9646678,0.502650405 L22.9646678,0.502650405 Z" id="Shape"></path>
                    </g>
                    <g id="path2542_18_" transform="translate(6.291690, 25.222293)">
                        <path d="M19.0323617,0.106199128 C19.0323617,4.08866643 18.7177772,6.00025073 19.6615307,8.86762718 C20.2906997,10.4606141 22.3354989,12.8500945 22.9646678,15.0802762 C23.7511291,18.1069513 24.6948825,21.2929252 24.5375903,23.3638081 C24.5375903,25.5939898 24.3802981,29.8950545 23.4365446,34.5147166 C22.6500834,38.3378852 20.9198687,41.523859 18.0886082,43.2761446 C15.1000556,42.6389499 11.6396262,41.6831577 9.59482698,39.7715734 C5.66252084,36.2670022 2.04479919,30.3729506 1.57292246,25.2753924 C1.25833796,21.1336265 5.03335186,14.9209775 10.3812882,11.8943023 C14.9427633,9.18622457 15.8865168,6.15954942 16.8302703,1.38058866 C15.4146401,5.68165334 14.1563021,9.18622457 9.90941147,11.4164063 C3.61772165,14.7616788 0.314584491,20.337133 0.629168982,25.7532885 C1.10104572,32.6031323 3.77501389,37.2227943 9.12295024,40.8866643 C11.3250417,42.4796512 15.5719323,44.2319368 18.2459005,44.5505342 L18.2459005,44.2319368 C20.2906997,43.9133394 22.8073756,40.5680669 24.0657136,36.1077035 C25.1667593,32.1252362 25.638636,26.8683794 25.4813438,23.6824055 C25.4813438,21.7708212 24.5375903,17.6290552 23.1219601,13.9651853 C22.3354989,11.8943023 21.0771609,9.82341933 20.1334074,8.38973111 C19.5042384,6.95604288 19.5042384,3.77006904 19.0323617,0.106199128 Z" id="Shape"></path>
                    </g>
                    <g id="path2544_18_" transform="translate(17.302147, 40.596412)">
                        <path d="M7.39273554,0.343351713 C7.39273554,3.05142948 8.49378126,6.39670201 8.96565799,9.90127323 C9.28024249,12.4500523 9.12295024,15.1581301 9.12295024,17.3883117 C9.12295024,20.0963895 8.17919677,24.7160516 6.9208588,27.105532 C5.81981308,26.6276359 5.34793635,25.9904411 4.56147512,25.034649 C3.61772165,23.7602594 2.98855266,22.4858699 2.51667593,20.892883 C2.04479919,19.7777921 1.57292246,18.5034026 1.25833796,16.9104157 C0.943753473,14.680234 1.10104572,11.0163641 3.61772165,7.35249416 C5.50522859,4.4851177 5.97710533,4.16652032 6.76356656,0.980546481 C5.81981308,4.00722163 5.1906441,4.16652032 3.14584491,6.71529939 C0.786461228,9.42337715 0.471876737,13.4058444 0.471876737,16.751117 C0.471876737,18.1848052 0.943753473,19.6184934 1.57292246,21.0521817 C2.20209144,22.6451686 2.67396817,24.0788568 3.4604294,25.1939477 C4.71876737,27.105532 6.29168982,28.0613241 7.07815105,28.2206228 C7.07815105,28.2206228 7.07815105,28.2206228 7.07815105,28.2206228 C7.07815105,28.2206228 7.07815105,28.2206228 7.07815105,28.2206228 L7.07815105,28.0613241 C8.49378126,26.4683372 9.43753473,24.7160516 9.75211922,23.1230647 C10.0667037,21.2114804 10.223996,19.1405974 10.3812882,16.751117 C10.5385804,14.8395327 10.3812882,12.1314549 9.90941147,9.42337715 C9.12295024,6.23740331 7.86461228,2.73283209 7.39273554,0.343351713 L7.39273554,0.343351713 Z" id="Shape"></path>
                    </g>
                    <g id="path2550_18_" transform="translate(24.373837, 7.143687)">
                        <path d="M0.792922455,0.343351713 C0.792922455,4.32581901 1.10750695,11.6535588 2.20855266,14.5209353 C2.52313716,15.4767274 5.35439758,19.7777921 7.24190452,25.034649 C8.65753473,28.6985189 8.81482698,32.0437914 9.12941147,32.9995836 C10.0731649,37.3006482 8.97211922,44.6283881 7.39919677,51.4782318 C6.61273554,55.1421017 4.09605961,59.7617638 1.10750695,61.6733481 L0.478337964,62.7884389 C2.05126042,62.7884389 6.1408588,58.646673 7.55648901,53.7084135 C9.9158727,45.2655828 10.8596262,41.2831155 9.75858045,31.8844927 C9.6012882,30.9287006 9.28670371,27.9020254 7.8710735,24.5567529 C5.82627431,19.4591947 2.83772165,14.680234 2.36584491,13.5651431 C1.89396817,11.9721562 0.950214701,5.12231247 0.792922455,0.343351713 L0.792922455,0.343351713 Z" id="Shape"></path>
                    </g>
                    <g id="path2552_18_" transform="translate(24.373837, 0.000000)">
                        <path d="M2.20855266,0.477896076 C2.05126042,4.46036337 1.89396817,7.8056359 2.6804294,10.6730124 C3.46689063,14.0182849 7.71378126,18.637947 9.44399596,24.0541025 C12.7471331,34.4085175 11.9606719,47.9489063 9.44399596,58.4626199 C8.50024249,62.1264898 4.25335186,67.5426454 0.00646122758,69.294931 L3.15230614,70.0914244 C4.88252084,70.0914244 9.28670371,65.7903598 11.0169184,61.011399 C13.8481788,53.5243605 14.3200556,44.6036337 13.2190099,35.0457122 C13.2190099,34.0899201 11.6460874,25.9656868 10.2304572,22.6204143 C8.18565799,17.5228561 5.03981308,14.0182849 3.78147512,10.832311 C2.83772165,8.44283067 2.52313716,2.23018169 3.15230614,0.79649346 L2.20855266,0.477896076 Z" id="Shape"></path>
                    </g>
                </g>
            </g>
        </g>
    </g>
</svg>