<?xml version="1.0" encoding="UTF-8" standalone="no"?>
<!-- Created with Inkscape (http://www.inkscape.org/) -->

<svg
   version="1.1"
   id="svg97"
   width="92.160004"
   height="95.360001"
   viewBox="0 0 92.160004 95.360001"
   sodipodi:docname="wireguard.svg"
   inkscape:version="1.2 (dc2aedaf03, 2022-05-15)"
   xmlns:inkscape="http://www.inkscape.org/namespaces/inkscape"
   xmlns:sodipodi="http://sodipodi.sourceforge.net/DTD/sodipodi-0.dtd"
   xmlns="http://www.w3.org/2000/svg"
   xmlns:svg="http://www.w3.org/2000/svg">
  <defs
     id="defs101" />
  <sodipodi:namedview
     id="namedview99"
     pagecolor="#505050"
     bordercolor="#eeeeee"
     borderopacity="1"
     inkscape:showpageshadow="0"
     inkscape:pageopacity="0"
     inkscape:pagecheckerboard="0"
     inkscape:deskcolor="#505050"
     showgrid="false"
     inkscape:zoom="5.6568543"
     inkscape:cx="82.731493"
     inkscape:cy="62.137008"
     inkscape:window-width="1920"
     inkscape:window-height="1024"
     inkscape:window-x="0"
     inkscape:window-y="28"
     inkscape:window-maximized="1"
     inkscape:current-layer="g103" />
  <g
     inkscape:groupmode="layer"
     inkscape:label="Image"
     id="g103"
     style="display:inline">
    <path
       style="fill:#800000;stroke-width:0.321789"
       d="M 37.466376,94.244866 C 25.400413,92.597528 16.545594,88.016978 10.171711,80.125489 6.1353724,75.128105 3.1892009,68.457061 1.5531875,60.610489 0.61615096,56.116316 0.38392054,46.243203 1.0990513,41.303201 2.3934427,32.361771 5.3273701,24.37919 9.7021439,17.896056 11.823796,14.751905 16.888449,9.6763519 19.792133,7.7843509 27.420521,2.8138008 34.93289,0.75789563 45.467117,0.75789563 c 21.998935,0 36.785489,9.24633437 43.377501,27.12483437 2.377256,6.447457 3.171201,11.418696 3.171201,19.856235 0,8.418355 -0.875209,13.934697 -3.227438,20.342139 -4.774958,13.00693 -14.2849,21.638832 -27.53824,24.995674 -6.278818,1.590316 -16.878246,2.110886 -23.783765,1.168088 z m 16.680832,-1.483059 c 4.375074,-1.467242 7.717071,-3.84276 10.272266,-7.301599 4.427637,-5.993471 4.956178,-14.37139 1.34483,-21.316978 -1.218688,-2.343859 -3.668485,-5.319714 -4.630748,-5.625123 -0.436924,-0.138669 -1.690015,0.441004 -4.097724,1.895602 -1.907579,1.152452 -4.180846,2.410547 -5.051704,2.795771 l -1.58338,0.700403 1.546552,0.587061 c 4.566849,1.733543 7.025098,5.600533 6.484462,10.2005 -0.407342,3.465822 -2.227825,6.197488 -5.150657,7.728637 -2.261157,1.184525 -6.078195,1.234298 -8.207654,0.107024 -1.671516,-0.88485 -3.30536,-2.537943 -4.466509,-4.519139 -1.144603,-1.952964 -1.196673,-5.814921 -0.111424,-8.264318 1.278992,-2.886668 2.756299,-3.97611 9.355437,-6.899183 6.382549,-2.82713 7.840535,-3.629499 9.836945,-5.413537 5.286242,-4.723911 8.269537,-11.375935 8.318004,-18.547142 0.02613,-3.865962 -0.5747,-6.094255 -2.363186,-8.764342 -1.609909,-2.403485 -2.498122,-3.237392 -7.724653,-7.252361 -3.74025,-2.873222 -5.792187,-4.888987 -5.792187,-5.690079 0,-0.116983 0.192387,-0.475803 0.427527,-0.797377 0.372779,-0.509806 1.087998,-0.605756 5.585007,-0.749246 3.665956,-0.116968 5.222885,-0.05874 5.383647,0.20139 0.376422,0.609061 1.228871,0.414204 2.181759,-0.498721 1.527884,-1.463802 1.245009,-1.709631 -1.967248,-1.709631 -2.98425,0 -4.008901,-0.18726 -3.706043,-0.677296 0.09792,-0.158437 2.278916,-0.288069 4.846657,-0.288069 h 4.668625 L 69.331091,11.940031 C 69.212996,11.541818 68.552761,10.640058 67.863893,9.9361177 66.627891,8.6730736 66.583704,8.6574738 64.506339,8.7507664 61.738867,8.8750437 60.414738,8.3990116 59.175416,6.8342404 57.936058,5.2694235 54.631669,3.5352446 51.233138,2.6660461 48.779112,2.0384126 42.261399,1.7653632 42.594382,2.3041387 c 0.08806,0.1425055 1.617063,0.6030293 3.397764,1.0233947 1.780701,0.420367 3.237638,0.8829938 3.237638,1.0280607 0,0.4542605 -3.255662,0.2641074 -6.274106,-0.36645 -1.592433,-0.3326616 -2.95506,-0.5451103 -3.028061,-0.4721094 -0.155343,0.1553445 5.917642,3.0330443 6.400816,3.0330443 0.672038,0 0.292837,0.6447409 -0.672937,1.1441606 -0.833093,0.4308105 -1.625698,0.4797646 -4.749277,0.2933333 -3.1516,-0.1881034 -3.954026,-0.1368711 -5.033546,0.3213806 L 34.588424,8.854111 36.37819,9.768277 c 2.253334,1.150945 2.533609,1.499063 2.762433,3.431132 l 0.18581,1.56886 -1.743436,0.722614 c -1.872293,0.77602 -4.097441,2.440368 -3.744514,2.800789 0.118491,0.121004 1.580129,0.336924 3.248099,0.479832 2.553812,0.218807 5.063864,0.933947 5.063864,1.442751 0,0.07291 -0.724024,0.526611 -1.608941,1.008242 -0.884917,0.481634 -1.60894,1.018388 -1.60894,1.192789 0,0.196118 0.914731,0.247912 2.397649,0.13576 l 2.397653,-0.181333 1.383358,1.188444 c 0.760848,0.653645 2.817805,2.329982 4.571017,3.725193 4.226927,3.363811 7.098041,6.367687 8.164602,8.542143 0.739961,1.508604 0.871903,2.191625 0.873177,4.520134 0.0013,2.446106 -0.111698,2.972944 -1.044463,4.867648 -1.305996,2.652859 -4.430452,5.872449 -7.05802,7.272927 -1.064774,0.567519 -3.296855,1.394887 -4.960181,1.838599 -4.028418,1.074624 -6.656974,2.456611 -9.247046,4.861719 -8.093415,7.515443 -8.545534,19.977506 -1.025039,28.253987 2.229138,2.453219 6.734127,4.938504 10.465737,5.773678 1.924567,0.430734 6.388743,0.187313 8.296197,-0.45238 z M 56.856564,9.8863504 c -0.506723,-0.5067231 -0.205961,-1.1257162 0.498372,-1.0256851 0.398213,0.056557 0.724025,0.3180517 0.724025,0.5811037 0,0.5112413 -0.847504,0.819475 -1.222397,0.4445814 z M 20.781607,73.142896 c 1.045361,-0.363499 3.269462,-0.945479 4.942446,-1.293291 1.672985,-0.34781 3.139822,-0.791003 3.259639,-0.98487 0.119815,-0.193869 0.304316,-0.983333 0.409998,-1.754364 0.105684,-0.771031 0.628287,-2.363762 1.161344,-3.539393 0.533057,-1.175632 0.904351,-2.242435 0.825096,-2.370673 -0.07925,-0.128237 -0.936396,-0.125648 -1.904757,0.0058 -4.41221,0.598747 -9.621441,5.144618 -10.761423,9.391023 -0.178171,0.663688 -0.213486,1.206706 -0.07847,1.206706 0.135014,0 1.10077,-0.29741 2.146133,-0.660908 z M 33.572151,60.690937 c 1.056739,-1.516099 3.474137,-3.600411 5.802545,-5.003027 l 1.792186,-1.079599 -1.825533,-0.575452 C 33.895158,52.3161 31.762972,48.514331 33.315087,43.287801 c 1.614717,-5.437351 8.527309,-7.338087 12.849802,-3.533277 1.988692,1.750519 2.835694,3.661703 2.8188,6.360381 -0.01523,2.424979 -0.648758,4.005577 -2.410631,6.013881 l -1.043836,1.18983 0.965365,-0.239816 c 1.971064,-0.489657 5.007618,-2.187545 6.733883,-3.765256 1.258485,-1.150183 2.158321,-2.383295 3.07362,-4.212007 1.1243,-2.246278 1.294187,-2.868211 1.294187,-4.737781 0,-2.848329 -1.052095,-4.977519 -3.841538,-7.774346 -5.418925,-5.433273 -13.680584,-6.622984 -20.697147,-2.980469 -4.590948,2.383304 -8.100892,6.762053 -9.433714,11.768806 -0.991558,3.7248 -0.416193,9.273857 1.348664,13.007065 1.458612,3.085405 5.707741,7.492091 7.239156,7.507579 0.285651,0.0029 0.897852,-0.537766 1.360453,-1.201454 z"
       id="path964" />
    <path
       style="fill:#ffffff;fill-opacity:1;stroke-width:0.176777"
       d="m 18.764792,72.876192 c 0.462283,-2.096572 2.407077,-4.873168 4.676378,-6.676498 1.508434,-1.198697 4.104989,-2.521931 5.514715,-2.810361 1.186969,-0.242853 2.33359,-0.246637 2.33359,-0.0077 0,0.101181 -0.363971,1.067093 -0.808824,2.146473 -0.444853,1.079379 -0.965548,2.680594 -1.1571,3.558255 -0.191553,0.877661 -0.381407,1.649352 -0.421899,1.71487 -0.09397,0.152045 -2.004018,0.689887 -5.020608,1.413729 -1.303662,0.312819 -2.928473,0.75861 -3.610691,0.990648 -1.691716,0.575389 -1.704451,0.572603 -1.505561,-0.329416 z"
       id="path10354" />
    <path
       style="fill:#ffffff;fill-opacity:1;stroke-width:0.176777"
       d="m 46.934212,93.230105 c -2.94566,-0.273031 -7.504438,-2.38457 -10.399655,-4.816922 -1.084285,-0.910938 -2.847219,-3.156304 -3.786758,-4.823016 -4.415132,-7.832302 -3.13826,-17.446895 3.148621,-23.708502 2.639098,-2.62849 5.097629,-4.03642 9.290665,-5.320502 2.865288,-0.877471 4.834315,-1.635051 5.989768,-2.304556 1.381169,-0.800293 3.458458,-2.672572 4.758557,-4.28893 2.387719,-2.968549 3.198544,-5.606642 2.805426,-9.127711 C 58.333829,35.19449 56.209187,32.506911 49.232309,26.812091 47.384993,25.304235 45.41584,23.678038 44.856414,23.198319 l -1.017139,-0.872214 -2.385813,0.127783 c -1.365402,0.07313 -2.385812,0.06075 -2.385812,-0.02895 0,-0.164276 1.153821,-0.950775 2.430679,-1.656866 0.860162,-0.475662 0.905233,-0.596916 0.353553,-0.951168 -0.691213,-0.44385 -2.260866,-0.803171 -5.061044,-1.158564 -1.492933,-0.18948 -2.764751,-0.396139 -2.826262,-0.459241 -0.237363,-0.243503 1.550123,-1.56302 3.241166,-2.392619 0.97407,-0.477865 1.876756,-0.868844 2.005969,-0.868844 0.181705,0 0.208451,-0.230296 0.118052,-1.016466 -0.291172,-2.532209 -0.6157,-2.999567 -2.94839,-4.2460098 L 34.841091,8.8521253 35.761128,8.4473889 c 0.884598,-0.3891465 1.080052,-0.4030208 5.074288,-0.3601986 4.147603,0.044466 4.155526,0.043826 4.949748,-0.4000605 1.06226,-0.5936918 1.133647,-1.0726308 0.203009,-1.362002 -0.862252,-0.2681072 -5.711822,-2.5546191 -5.617745,-2.6486963 0.03784,-0.037837 1.172195,0.1372096 2.520795,0.388993 2.787838,0.5204889 5.845619,0.7423398 6.252698,0.4536514 0.388272,-0.2753507 0.08234,-0.42341 -2.013312,-0.9743618 C 46.147546,3.2862646 44.748328,2.9029543 44.021235,2.6929135 42.716587,2.3160301 42.707313,2.3092094 43.314128,2.1728848 c 0.687648,-0.154484 3.330473,-0.043225 5.741405,0.2417047 3.941081,0.4657662 7.901377,2.238506 10.018713,4.4846577 0.517793,0.5492942 1.236244,1.1505771 1.596557,1.3361843 0.837718,0.4315312 2.643976,0.6877195 3.988924,0.5657639 0.607249,-0.055063 1.318154,-0.00657 1.686691,0.1150605 0.757724,0.2500711 2.331913,1.9001881 2.793065,2.9277831 l 0.317328,0.707106 -4.720561,0.104018 c -2.596309,0.05721 -4.740449,0.116872 -4.764756,0.132583 -0.134807,0.08713 -0.01225,0.557773 0.175458,0.673782 0.120809,0.07466 1.509001,0.178796 3.08487,0.231404 1.835578,0.06128 2.939686,0.170163 3.072451,0.303001 0.301664,0.301832 -0.378253,1.183599 -1.353236,1.754977 -0.773745,0.453444 -0.794804,0.455774 -1.270079,0.140493 -0.357683,-0.237273 -0.919758,-0.337776 -2.162668,-0.386698 -2.167898,-0.08533 -7.901864,0.231339 -8.521008,0.470591 -0.262719,0.10152 -0.602848,0.426649 -0.755841,0.722507 -0.244422,0.472659 -0.247392,0.597449 -0.02447,1.028527 0.419193,0.810626 3.00601,3.159006 6.471309,5.874821 4.005599,3.139255 5.357566,4.398916 6.498515,6.054819 1.12685,1.635441 1.674324,2.728808 2.192165,4.378002 0.374434,1.192476 0.414905,1.648993 0.414905,4.680124 0,2.874133 -0.05966,3.626576 -0.413482,5.214913 -1.093825,4.910268 -3.256693,8.891433 -6.735643,12.398221 -2.369186,2.388143 -3.938436,3.346904 -9.687386,5.918681 -5.79933,2.594317 -7.815406,3.740813 -9.12278,5.187921 -2.221242,2.458649 -2.885127,7.351365 -1.40708,10.369931 1.121633,2.290674 3.58505,4.550632 5.65834,5.191005 1.424559,0.440003 4.095893,0.480183 5.615172,0.08446 3.124028,-0.813707 5.654604,-3.491769 6.53322,-6.913989 0.346383,-1.349169 0.357309,-3.906626 0.02207,-5.166165 -0.809749,-3.042345 -3.445523,-5.698358 -6.681692,-6.733 -0.364602,-0.116568 -0.662913,-0.26737 -0.662913,-0.335114 0,-0.06774 0.775608,-0.508132 1.723573,-0.978643 0.947965,-0.470509 2.638392,-1.393299 3.756505,-2.050645 2.606986,-1.532666 4.139351,-2.300199 4.592306,-2.300199 0.478294,0 2.166648,1.733709 3.33691,3.426551 6.207743,8.979822 4.445644,21.073723 -3.99328,27.407238 -1.61122,1.209241 -4.024544,2.490885 -5.817127,3.089302 -1.929901,0.644257 -5.076341,0.937266 -7.576363,0.70554 z M 57.8176,9.9816635 c 0.778783,-0.416792 0.08911,-1.3835647 -0.823581,-1.1544923 -0.293882,0.07376 -0.425477,0.2314974 -0.425477,0.5100062 0,0.7295866 0.554982,1.0159446 1.249058,0.6444861 z"
       id="path10356" />
    <path
       style="fill:#ffffff;fill-opacity:1;stroke-width:0.176777"
       d="m 31.289475,61.439976 c -1.772107,-0.939022 -4.867229,-4.479811 -6.112599,-6.992754 -1.942714,-3.920062 -2.48877,-9.733256 -1.284236,-13.671694 1.849823,-6.048324 6.89648,-10.87488 13.199453,-12.623785 1.144875,-0.317671 1.840115,-0.376749 4.45043,-0.378174 2.876145,-0.0016 3.204628,0.03247 4.673262,0.48423 3.068101,0.943771 5.260853,2.262606 7.531159,4.529631 2.887943,2.883766 3.79462,4.867086 3.677042,8.043383 l -0.06792,1.834932 -1.094409,2.197797 c -1.638041,3.28953 -3.637346,5.273481 -7.062425,7.008192 -1.158172,0.586584 -3.072227,1.296873 -3.186585,1.182514 -0.03744,-0.03744 0.261638,-0.449007 0.664608,-0.914602 1.722613,-1.990325 2.313276,-3.527236 2.318592,-6.032991 0.0041,-1.919486 -0.341469,-3.270548 -1.163588,-4.549653 -2.512289,-3.908773 -7.694122,-5.010893 -11.544233,-2.455335 -1.533797,1.018075 -2.552385,2.480897 -3.118882,4.479109 -1.433525,5.056484 0.740721,8.718579 6.281798,10.580467 l 1.425705,0.47906 -1.613861,1.023091 c -2.290298,1.451912 -4.172993,3.042691 -5.554978,4.693669 -0.662292,0.791201 -1.328836,1.422913 -1.496801,1.418578 -0.166546,-0.0043 -0.581234,-0.155346 -0.921529,-0.335665 z"
       id="path10358" />
  </g>
</svg>
