<?xml version="1.0" encoding="UTF-8" standalone="no"?>
<!DOCTYPE svg PUBLIC "-//W3C//DTD SVG 20010904//EN"
"http://www.w3.org/TR/2001/REC-SVG-20010904/DTD/svg10.dtd">
<!-- Created with Inkscape (http://www.inkscape.org/) --><svg height="60.0000000" id="svg1" inkscape:version="0.38.1" sodipodi:docbase="/home/danny/flat/scalable/apps" sodipodi:docname="irc_protocol.svg" sodipodi:version="0.32" version="1.0" width="60.0000000" x="0" xmlns="http://www.w3.org/2000/svg" xmlns:inkscape="http://www.inkscape.org/namespaces/inkscape" xmlns:sodipodi="http://sodipodi.sourceforge.net/DTD/sodipodi-0.dtd" xmlns:xlink="http://www.w3.org/1999/xlink" xmlns:xml="http://www.w3.org/XML/1998/namespace" y="0">
  <metadata>
    <rdf:RDF xmlns:cc="http://web.resource.org/cc/" xmlns:dc="http://purl.org/dc/elements/1.1/" xmlns:rdf="http://www.w3.org/1999/02/22-rdf-syntax-ns#">
      <cc:Work rdf:about="">
        <dc:title>Part of the Flat Icon Collection (Wed Aug 25 23:23:49 2004)</dc:title>
        <dc:description></dc:description>
        <dc:subject>
          <rdf:Bag>
            <rdf:li>hash</rdf:li>
            <rdf:li></rdf:li>
            <rdf:li>application</rdf:li>
            <rdf:li>computer</rdf:li>
            <rdf:li>icons</rdf:li>
            <rdf:li>theme</rdf:li>
          </rdf:Bag>
        </dc:subject>
        <dc:publisher>
          <cc:Agent rdf:about="http://www.openclipart.org">
            <dc:title>Danny Allen</dc:title>
          </cc:Agent>
        </dc:publisher>
        <dc:creator>
          <cc:Agent>
            <dc:title>Danny Allen</dc:title>
          </cc:Agent>
        </dc:creator>
        <dc:rights>
          <cc:Agent>
            <dc:title>Danny Allen</dc:title>
          </cc:Agent>
        </dc:rights>
        <dc:date></dc:date>
        <dc:format>image/svg+xml</dc:format>
        <dc:type rdf:resource="http://purl.org/dc/dcmitype/StillImage"/>
        <cc:license rdf:resource="http://web.resource.org/cc/PublicDomain"/>
        <dc:language>en</dc:language>
      </cc:Work>
      <cc:License rdf:about="http://web.resource.org/cc/PublicDomain">
        <cc:permits rdf:resource="http://web.resource.org/cc/Reproduction"/>
        <cc:permits rdf:resource="http://web.resource.org/cc/Distribution"/>
        <cc:permits rdf:resource="http://web.resource.org/cc/DerivativeWorks"/>
      </cc:License>
    </rdf:RDF>
  </metadata>
  <sodipodi:namedview bordercolor="#ffffff" borderopacity="1.0" id="base" inkscape:cx="37.697545" inkscape:cy="22.126475" inkscape:pageopacity="0.0" inkscape:pageshadow="2" inkscape:window-height="685" inkscape:window-width="1016" inkscape:window-x="0" inkscape:window-y="0" inkscape:zoom="6.9465337" pagecolor="#ffffff" showguides="true" snaptoguides="true"/>
  <defs id="defs3">
    <linearGradient id="linearGradient772">
      <stop id="stop773" offset="0" style="stop-color:#fff;stop-opacity:1;"/>
      <stop id="stop774" offset="1" style="stop-color:#fff;stop-opacity:1;"/>
    </linearGradient>
    <linearGradient id="linearGradient775" xlink:href="#linearGradient772"/>
  </defs>
  <path d="M 11.934141,39.676628 C 11.934141,39.055534 12.066954,38.483269 12.332579,37.959831 C 12.598204,37.432487 12.969298,37.018425 13.445860,36.717644 C 13.926329,36.416862 14.473204,36.266472 15.086485,36.266472 C 15.410704,36.266472 15.744688,36.305534 16.088438,36.383659 C 16.432188,36.457878 16.721251,36.586784 16.955626,36.770378 C 17.190001,36.953972 17.307188,37.202019 17.307188,37.514519 C 17.307188,37.764519 17.232970,37.973503 17.084532,38.141472 C 16.940001,38.309441 16.758360,38.393425 16.539610,38.393425 C 16.434141,38.393425 16.330626,38.375847 16.229063,38.340691 C 16.131407,38.305534 16.031798,38.268425 15.930235,38.229362 C 15.832579,38.186394 15.727110,38.151237 15.613829,38.123894 C 15.504454,38.096550 15.365782,38.082878 15.197813,38.082878 C 14.893126,38.082878 14.635313,38.155144 14.424376,38.299675 C 14.217345,38.440300 14.061095,38.631706 13.955626,38.873894 C 13.854063,39.112175 13.803282,39.379753 13.803282,39.676628 C 13.803282,39.965691 13.854063,40.235222 13.955626,40.485222 C 14.057188,40.731316 14.203673,40.926628 14.395079,41.071159 C 14.590391,41.215691 14.820860,41.287956 15.086485,41.287956 C 15.387266,41.287956 15.690001,41.231316 15.994688,41.118034 C 16.299376,41.004753 16.481016,40.948112 16.539610,40.948112 C 16.680235,40.948112 16.809141,40.989128 16.926329,41.071159 C 17.043516,41.153191 17.135313,41.260612 17.201720,41.393425 C 17.272032,41.522331 17.307188,41.655144 17.307188,41.791862 C 17.307188,42.080925 17.180235,42.325066 16.926329,42.524284 C 16.676329,42.723503 16.377501,42.868034 16.029845,42.957878 C 15.682188,43.051628 15.367735,43.098503 15.086485,43.098503 C 14.621641,43.098503 14.195860,43.012566 13.809141,42.840691 C 13.426329,42.668816 13.092345,42.424675 12.807188,42.108269 C 12.522032,41.787956 12.305235,41.420769 12.156798,41.006706 C 12.008360,40.588737 11.934141,40.145378 11.934141,39.676628 z M 7.9614851,41.991081 L 7.9614851,37.362175 C 7.9614851,37.084831 8.0474226,36.854362 8.2192976,36.670769 C 8.3950789,36.483269 8.6196883,36.389519 8.8931258,36.389519 C 9.1196883,36.389519 9.3150008,36.450066 9.4790633,36.571159 C 9.6470320,36.688347 9.7642195,36.827019 9.8306258,36.987175 C 10.232970,36.506706 10.664610,36.266472 11.125548,36.266472 C 11.379454,36.266472 11.602110,36.358269 11.793516,36.541862 C 11.988829,36.721550 12.086485,36.953972 12.086485,37.239128 C 12.086485,37.532097 11.994688,37.744987 11.811095,37.877800 C 11.631407,38.010612 11.332579,38.137566 10.914610,38.258659 C 10.488829,38.379753 10.201720,38.532097 10.053282,38.715691 C 9.9048445,38.895378 9.8306258,39.219597 9.8306258,39.688347 L 9.8306258,41.991081 C 9.8306258,42.268425 9.7427351,42.502800 9.5669539,42.694206 C 9.3950789,42.881706 9.1704695,42.975456 8.8931258,42.975456 C 8.6196883,42.975456 8.3950789,42.881706 8.2192976,42.694206 C 8.0474226,42.502800 7.9614851,42.268425 7.9614851,41.991081 z M 5.2603133,41.991081 L 5.2603133,37.362175 C 5.2603133,37.084831 5.3462508,36.854362 5.5181258,36.670769 C 5.6939070,36.483269 5.9185164,36.389519 6.1919539,36.389519 C 6.4692976,36.389519 6.6939070,36.483269 6.8657820,36.670769 C 7.0415633,36.854362 7.1294539,37.084831 7.1294539,37.362175 L 7.1294539,41.991081 C 7.1294539,42.268425 7.0415633,42.502800 6.8657820,42.694206 C 6.6939070,42.881706 6.4692976,42.975456 6.1919539,42.975456 C 5.9185164,42.975456 5.6939070,42.881706 5.5181258,42.694206 C 5.3462508,42.502800 5.2603133,42.268425 5.2603133,41.991081 z M 5.0786726,34.696159 C 5.0786726,34.391472 5.1880476,34.127800 5.4067976,33.905144 C 5.6255476,33.682487 5.8872664,33.571159 6.1919539,33.571159 C 6.5005476,33.571159 6.7642195,33.680534 6.9829695,33.899284 C 7.2017195,34.118034 7.3110945,34.383659 7.3110945,34.696159 C 7.3110945,35.020378 7.2017195,35.289909 6.9829695,35.504753 C 6.7642195,35.719597 6.5005476,35.827019 6.1919539,35.827019 C 5.8872664,35.827019 5.6255476,35.717644 5.4067976,35.498894 C 5.1880476,35.280144 5.0786726,35.012566 5.0786726,34.696159 z M -0.95648360,42.055534 L -0.74554610,40.479362 L -1.1967180,40.479362 C -1.3959367,40.479362 -1.5424211,40.422722 -1.6361711,40.309441 C -1.7299211,40.192253 -1.7767961,40.053581 -1.7767961,39.893425 C -1.7767961,39.733269 -1.7299211,39.598503 -1.6361711,39.489128 C -1.5424211,39.375847 -1.3959367,39.319206 -1.1967180,39.319206 L -0.58734298,39.319206 L -0.39398360,37.877800 L -0.85101485,37.877800 C -1.0463274,37.877800 -1.1908586,37.821159 -1.2846086,37.707878 C -1.3783586,37.590691 -1.4252336,37.452019 -1.4252336,37.291862 C -1.4252336,37.127800 -1.3783586,36.991081 -1.2846086,36.881706 C -1.1908586,36.768425 -1.0463274,36.711784 -0.85101485,36.711784 L -0.21820235,36.711784 L 0.039610147,34.830925 C 0.066953897,34.631706 0.12945390,34.477409 0.22711015,34.368034 C 0.32867265,34.258659 0.48882890,34.203972 0.70757890,34.203972 C 0.86382890,34.203972 0.99273515,34.248894 1.0942976,34.338737 C 1.1958601,34.424675 1.2466414,34.543816 1.2466414,34.696159 C 1.2466414,34.762566 1.2310164,34.907097 1.1997664,35.129753 L 0.98296952,36.711784 L 2.0669539,36.711784 L 2.3189070,34.830925 C 2.3462508,34.631706 2.4087508,34.477409 2.5064070,34.368034 C 2.6079695,34.258659 2.7681258,34.203972 2.9868758,34.203972 C 3.1431258,34.203972 3.2720320,34.248894 3.3735945,34.338737 C 3.4751570,34.428581 3.5259383,34.547722 3.5259383,34.696159 C 3.5259383,34.762566 3.5103133,34.907097 3.4790633,35.129753 L 3.2622664,36.711784 L 3.7192976,36.711784 C 3.9224226,36.711784 4.0689070,36.768425 4.1587508,36.881706 C 4.2525008,36.991081 4.2993758,37.127800 4.2993758,37.291862 C 4.2993758,37.452019 4.2525008,37.590691 4.1587508,37.707878 C 4.0650008,37.821159 3.9185164,37.877800 3.7192976,37.877800 L 3.1099226,37.877800 L 2.9165633,39.319206 L 3.3735945,39.319206 C 3.5767195,39.319206 3.7232039,39.373894 3.8130476,39.483269 C 3.9028914,39.592644 3.9478133,39.729362 3.9478133,39.893425 C 3.9478133,40.057487 3.9009383,40.196159 3.8071883,40.309441 C 3.7173445,40.422722 3.5728133,40.479362 3.3735945,40.479362 L 2.7349226,40.479362 L 2.4829695,42.354362 C 2.4556258,42.549675 2.3931258,42.702019 2.2954695,42.811394 C 2.1978133,42.920769 2.0376570,42.975456 1.8150008,42.975456 C 1.6587508,42.975456 1.5278914,42.932487 1.4224226,42.846550 C 1.3208601,42.756706 1.2700789,42.635612 1.2700789,42.483269 C 1.2700789,42.405144 1.2876570,42.262566 1.3228133,42.055534 L 1.5396101,40.479362 L 0.45562577,40.479362 L 0.20367265,42.354362 C 0.17632890,42.553581 0.11187577,42.707878 0.010313272,42.817253 C -0.087342978,42.922722 -0.24749923,42.975456 -0.47015548,42.975456 C -0.62249923,42.975456 -0.75140548,42.932487 -0.85687423,42.846550 C -0.95843673,42.756706 -1.0092180,42.635612 -1.0092180,42.483269 C -1.0092180,42.405144 -0.99163985,42.262566 -0.95648360,42.055534 z M 1.7153914,39.319206 L 1.9087508,37.877800 L 0.81890702,37.877800 L 0.62554765,39.319206 L 1.7153914,39.319206 z " id="path832" style="font-size:12.000000;font-weight:900;fill:#ffffff;stroke-width:1.0000000pt;font-family:VAG Rounded Black SSi;" transform="matrix(2.687231,-1.389012e-16,1.389012e-16,2.687231,8.790176,-72.34898)"/>
</svg>
